<svg version="1.2" xmlns="http://www.w3.org/2000/svg" viewBox="0 0 324 52" width="324" height="52"><style></style><path fill-rule="evenodd" d="m17.9 31.6h-0.5v5.5h-16.8v-0.6c1.2-0.9 2.4-5.7 2.4-13.9v-4.5c0-8.3-1.2-13-2.4-14v-0.6h21.2c9 0 17.4 6.4 17.4 20.6 0 5.6-3.9 13.7-14 13.7-5.1 0-7-2.8-7.3-6.2zm8-3.5c0-11.3-2.8-23.5-7.5-23.5h-0.9l-0.1 24.3h0.5c0-1.7 1.1-4.9 3.3-4.9 2.2 0 3.2 2.6 3.2 4.4 0 2.2-0.5 4.1-0.8 4.9h-0.5c0-1-0.6-1.8-1.1-1.8-0.8 0-1.3 1.1-1.3 2.2 0 1.8 0.9 3 2.1 3 1.7 0 3.1-4 3.1-8.6z"/><path fill-rule="evenodd" d="m39.7 23.9c0-8.9 5.6-13.9 15.2-13.9 8.1 0 12.6 2.6 12.6 6.8 0 5.5-8.9 6.2-16 5.5v0.4c0 8.3 3.2 13.9 7.9 13.9 1.6 0 3-1.1 3-2.7 0-1.7-1.1-2.6-2.3-2.6-0.9 0-1.6 0.6-1.8 1.2h-0.5c-0.5-0.7-0.9-2.2-0.9-3.2 0-3.4 2.3-5.9 6.1-5.9 3.1 0 5.8 2.6 5.8 6.1 0 4.9-4.5 8.3-12.6 8.3-7.3 0-16.5-4-16.5-13.9zm19.1-8.4c-0.1-2.8-1.3-4.4-3.2-4.4-2.1 0-3.9 3.4-4.1 10.1 4.4 0 7.3-2.3 7.3-5.7z"/><path  d="m77.7 37.1h10.1l4.2-14.7c2.4-8.2 5.7-10.2 7.3-11.1v-0.5h-7.3v0.5c1.1 1 1.1 3-1.1 11.1l-1.4 5.3h-0.7l-1.4-5.3c-2.1-8.1-0.9-10.1 0.2-11.1v-0.5h-19v0.6c2.7 1 4.7 9 5.2 11z"/><path fill-rule="evenodd" d="m98.8 36.5c1.5-0.9 4-5.7 6.2-13.9l1.2-4.5c2.3-8.3 2.3-13 1.3-14v-0.6h18.1v0.6c-1 1-0.9 5.7 1.3 14l1.2 4.5c2.2 8.2 4.7 13 6.2 13.9v0.6h-19.4v-0.6c1-0.9 1-5.7-1.3-13.9l-1.1-4.5c-0.7 0-1.6 0.3-1.8 1 0.3 0.4 0.4 1.1 0.4 1.6 0 1-0.3 2.3-1.1 2.3-0.7 0-1-1.3-1-2.3 0-0.5 0.2-1.2 0.4-1.6-0.1-0.7-1.1-1-1.8-1l-1.2 4.5c-2.2 8.2-2.2 13-1.2 13.9v0.6h-6.4zm11.5-18.2c0.1-1.4 0.7-2.4 1.6-2.6l-1.5-5.6h-0.7l-1.4 5.6c0.8 0.2 1.4 1.2 1.5 2.6z"/><path  d="m144.8 37.8c4.2 0 6.5-2.8 7.1-7.9l-0.4-0.1c-0.3 0.6-0.8 0.9-1.3 0.9-0.9 0-1.7-0.8-1.7-2.8v-27.2h-0.4c-3.2 1.8-9 2.8-13.3 2.8v0.5c1 0.8 2 2.5 2 8v18.2c0 5 3.3 7.6 8 7.6z"/><path  d="m168.7 37.8c6.7 0 12.6-2.4 12.6-8.3 0-3.5-2.7-6.1-5.9-6.1-3.7 0-6 2.5-6 5.9 0 1 0.4 2.5 0.9 3.2h0.5c0.2-0.6 0.8-1.2 1.7-1.2 1.3 0 2.4 0.9 2.4 2.6 0 1.6-1.2 2.7-3 2.7-4.1 0-7.7-5.6-7.7-13.4 0-6.2 2-12.1 4.6-12.1 2.3 0 4.5 3.6 4.9 9.6h0.5l3-8.4c-2.2-1.4-6.2-2.3-9.5-2.3-8.8 0-15.5 5-15.5 13.9 0 8.8 7.9 13.8 16.5 13.9z"/><path  d="m182 37.1h15.8v-0.5c-1-0.9-2-5.6-2-13.6v-3.1c0-2.4 1.1-3.9 2.6-3.9 1.6 0 2.6 1.7 2.6 4v3c0 8-1 12.7-2 13.6v0.5h15.8v-0.5c-1-0.9-2-5.6-2-13.6v-1.9c0-6.1-3.2-11.1-8.7-11.1-3.6 0-6.7 1.7-7.7 5.3h-0.6v-14.6h-0.5c-3.1 1.8-8.9 2.8-13.3 2.8v0.5c1 0.8 2 2.5 2 8v11c0 8-1 12.7-2 13.6z"/><path fill-rule="evenodd" d="m215.5 23.9c0-8.9 5.7-13.9 15.3-13.9 8 0 12.5 2.6 12.5 6.8 0 5.5-8.8 6.2-15.9 5.5v0.4c0 8.3 3.1 13.9 7.8 13.9 1.6 0 3-1.1 3-2.7 0-1.7-1.1-2.6-2.3-2.6-0.9 0-1.6 0.6-1.8 1.2h-0.5c-0.5-0.7-0.9-2.2-0.9-3.2 0-3.4 2.3-5.9 6.1-5.9 3.1 0 5.8 2.6 5.8 6.1 0 4.9-4.5 8.3-12.5 8.3-7.3 0-16.6-4-16.6-13.9zm19.1-8.4c0-2.8-1.3-4.4-3.2-4.4-2 0-3.9 3.4-4 10.1 4.3 0 7.2-2.3 7.2-5.7z"/><path  d="m245.4 37.1h15.2v-0.5c-1-0.9-2-5.6-2-13.6v-3.1c0-2.4 1-3.9 2.5-3.9 1.6 0 2.6 1.7 2.6 4v3c0 8-1 12.7-2 13.6v0.5h14.9v-0.5c-1-0.9-2-5.6-2-13.6v-3.4c0.1-2.2 1.1-3.6 2.6-3.6 1.6 0 2.6 1.7 2.6 4v3c0 8-1 12.7-2.1 13.6v0.5h14.9v-0.5c-1-0.9-2-5.6-2-13.6v-1.9c0-6.1-2.7-11.1-8.2-11.1-3.6 0-6.6 1.7-7.5 5.3h-0.7c-1.1-3.4-3.5-5.3-7.5-5.3-3.5 0-6.6 1.7-7.5 5.3h-0.7v-5.5h-0.5c-3.1 1.8-8.3 2.8-12.6 2.8v0.5c1 0.8 2 2.6 2 8v1.9c0 8-1 12.7-2 13.6z"/><path  d="m301.5 51.6c5.4 0 8-6.2 10-12.9l4.7-16.3c2.3-8.2 5.6-10.2 7.2-11.1v-0.5h-7.3v0.5c1.1 1 1.2 3-1 11.1l-1.5 5.3h-0.7l-1.3-5.3c-2.2-8.1-1-10.1 0.1-11.1v-0.5h-19v0.6c2.8 1 4.7 9 5.3 11l3.8 14.7h9l-0.5 1.5c-1.5 4.8-3 9-5.9 9-1.7 0-2.7-0.8-2.7-1.9 0-0.9 0.6-1.5 1.4-1.5 0.6 0 1 0.5 1 1l0.4-0.1c0.3-0.4 0.5-1.1 0.5-1.8 0-2.9-1.8-4.6-4.6-4.6-4 0-6.4 2.4-6.4 6.2 0 3.7 2.7 6.7 7.5 6.7z"/></svg>