<svg xmlns="http://www.w3.org/2000/svg" xmlns:xlink="http://www.w3.org/1999/xlink" width="320" zoomAndPan="magnify" viewBox="0 0 240 143.999998" height="192" preserveAspectRatio="xMidYMid meet" version="1.0"><defs><g/><clipPath id="fba6eb1add"><path d="M 110 51 L 131 51 L 131 81.121094 L 110 81.121094 Z M 110 51 " clip-rule="nonzero"/></clipPath><clipPath id="38aeb050b6"><path d="M 122 43.621094 L 124 43.621094 L 124 48 L 122 48 Z M 122 43.621094 " clip-rule="nonzero"/></clipPath><clipPath id="8871a51871"><path d="M 102.765625 64 L 108 64 L 108 67 L 102.765625 67 Z M 102.765625 64 " clip-rule="nonzero"/></clipPath><clipPath id="a99fd93856"><path d="M 133 59 L 137.265625 59 L 137.265625 61 L 133 61 Z M 133 59 " clip-rule="nonzero"/></clipPath></defs><rect x="-24" width="288" fill="#ffffff" y="-14.4" height="172.799997" fill-opacity="1"/><rect x="-24" width="288" fill="#000000" y="-14.4" height="172.799997" fill-opacity="1"/><g clip-path="url(#fba6eb1add)"><path fill="#ffffff" d="M 122.492188 52.1875 C 119.125 51.34375 115.367188 52.546875 113.113281 55.164062 C 110.859375 57.808594 110.289062 61.6875 111.640625 64.875 C 111.851562 65.382812 112.152344 65.894531 112.390625 66.375 C 112.570312 66.675781 112.753906 67.007812 112.902344 67.339844 C 113.472656 68.511719 113.59375 69.832031 113.59375 70.824219 C 113.625 71.878906 114.046875 72.871094 114.765625 73.5625 C 114.464844 73.863281 114.253906 74.3125 114.316406 74.765625 C 114.34375 75.273438 114.644531 75.785156 115.128906 76.175781 C 114.917969 76.417969 114.796875 76.746094 114.855469 77.078125 C 114.886719 77.4375 115.128906 77.800781 115.457031 78.070312 C 115.277344 78.28125 115.21875 78.550781 115.246094 78.851562 C 115.308594 79.183594 115.519531 79.511719 115.847656 79.753906 C 116.089844 79.933594 116.359375 80.023438 116.601562 80.085938 C 116.628906 80.476562 116.871094 80.867188 117.203125 81.105469 C 117.441406 81.289062 117.742188 81.378906 118.042969 81.378906 C 118.253906 81.378906 118.464844 81.316406 118.644531 81.226562 C 119.035156 81.046875 119.304688 80.6875 119.425781 80.265625 C 119.578125 80.234375 119.757812 80.203125 119.90625 80.175781 C 120.238281 80.113281 120.597656 79.996094 120.871094 79.695312 C 121.019531 79.511719 121.109375 79.242188 121.050781 78.941406 C 121.050781 78.882812 121.019531 78.820312 121.019531 78.761719 C 121.140625 78.730469 121.261719 78.671875 121.378906 78.613281 C 121.710938 78.429688 121.953125 78.101562 122.011719 77.769531 C 122.042969 77.589844 122.042969 77.347656 121.953125 77.167969 C 122.191406 77.109375 122.433594 77.046875 122.644531 76.929688 C 122.972656 76.746094 123.242188 76.476562 123.335938 76.175781 C 123.453125 75.847656 123.394531 75.457031 123.214844 75.09375 C 123.152344 74.945312 123.035156 74.824219 122.945312 74.671875 C 124.085938 74.132812 124.328125 73.230469 124.476562 72.71875 C 124.476562 72.660156 124.507812 72.628906 124.507812 72.570312 C 124.925781 71.246094 125.347656 70.585938 126.28125 69.140625 C 126.582031 68.691406 126.972656 68.210938 127.394531 67.699219 C 128.625 66.195312 130.1875 64.332031 130.1875 61.566406 C 130.1875 59.28125 129.375 57.058594 128.023438 55.613281 C 126.429688 53.960938 124.355469 52.636719 122.492188 52.1875 Z M 118.34375 80.714844 C 118.074219 80.835938 117.742188 80.804688 117.503906 80.65625 C 117.382812 80.566406 117.261719 80.414062 117.203125 80.265625 C 117.59375 80.324219 118.011719 80.386719 118.433594 80.386719 C 118.523438 80.386719 118.613281 80.386719 118.703125 80.386719 C 118.644531 80.535156 118.523438 80.65625 118.34375 80.714844 Z M 120.386719 79.363281 C 120.238281 79.511719 119.996094 79.605469 119.757812 79.632812 C 118.855469 79.8125 117.921875 79.8125 117.050781 79.605469 C 117.019531 79.574219 116.960938 79.542969 116.902344 79.542969 C 116.871094 79.542969 116.839844 79.542969 116.8125 79.542969 C 116.601562 79.484375 116.359375 79.421875 116.179688 79.273438 C 116 79.152344 115.878906 78.972656 115.847656 78.792969 C 115.820312 78.640625 115.910156 78.492188 116 78.429688 C 116.148438 78.492188 116.300781 78.550781 116.421875 78.613281 C 117.292969 78.914062 118.222656 79.0625 119.125 79.0625 C 119.546875 79.0625 119.96875 79.03125 120.417969 78.972656 C 120.417969 79.003906 120.449219 79.03125 120.449219 79.09375 C 120.449219 79.214844 120.417969 79.332031 120.386719 79.363281 Z M 121.378906 77.738281 C 121.351562 77.890625 121.230469 78.039062 121.050781 78.160156 C 120.839844 78.28125 120.597656 78.3125 120.359375 78.371094 C 119.09375 78.582031 117.804688 78.460938 116.601562 78.070312 C 116.359375 77.980469 116.058594 77.859375 115.820312 77.679688 C 115.609375 77.5 115.457031 77.289062 115.429688 77.078125 C 115.398438 76.867188 115.488281 76.6875 115.636719 76.597656 C 115.910156 76.746094 116.210938 76.839844 116.449219 76.929688 C 117.53125 77.289062 118.703125 77.46875 119.847656 77.46875 C 120.328125 77.46875 120.808594 77.4375 121.289062 77.378906 C 121.378906 77.410156 121.410156 77.589844 121.378906 77.738281 Z M 122.671875 75.425781 C 122.792969 75.636719 122.824219 75.875 122.761719 76.027344 C 122.703125 76.175781 122.550781 76.355469 122.371094 76.445312 C 122.160156 76.539062 121.953125 76.597656 121.679688 76.65625 C 120.027344 76.957031 118.3125 76.808594 116.71875 76.296875 C 116.328125 76.175781 115.910156 75.996094 115.546875 75.726562 C 115.21875 75.457031 115.007812 75.09375 114.976562 74.734375 C 114.945312 74.433594 115.097656 74.132812 115.308594 73.980469 C 115.699219 74.28125 116.179688 74.492188 116.660156 74.644531 C 117.503906 74.855469 119.277344 75.0625 119.96875 75.125 C 120.238281 75.15625 120.507812 75.15625 120.75 75.15625 C 121.410156 75.15625 121.921875 75.0625 122.371094 74.945312 C 122.460938 75.125 122.582031 75.273438 122.671875 75.425781 Z M 117.742188 66.136719 C 118.855469 66.464844 120.058594 66.585938 121.230469 66.464844 C 120.269531 69.023438 119.757812 71.789062 119.757812 74.523438 C 119.335938 74.492188 118.703125 74.402344 118.132812 74.3125 C 118.34375 71.578125 118.222656 68.839844 117.742188 66.136719 Z M 126.910156 67.398438 C 126.492188 67.910156 126.070312 68.421875 125.769531 68.902344 C 124.808594 70.40625 124.355469 71.097656 123.933594 72.480469 C 123.90625 72.539062 123.90625 72.570312 123.875 72.628906 C 123.753906 73.082031 123.515625 73.890625 122.433594 74.28125 C 122.34375 74.28125 122.253906 74.28125 122.191406 74.34375 C 121.710938 74.464844 121.109375 74.554688 120.328125 74.523438 C 120.328125 71.726562 120.867188 68.933594 121.890625 66.347656 C 122.222656 66.285156 122.523438 66.226562 122.851562 66.136719 C 123.394531 65.984375 123.996094 65.746094 124.296875 65.144531 C 124.476562 64.8125 124.476562 64.421875 124.328125 64.121094 C 124.207031 63.851562 123.964844 63.640625 123.664062 63.582031 C 123.304688 63.492188 122.914062 63.582031 122.582031 63.820312 C 122.222656 64.089844 122.011719 64.484375 121.832031 64.875 C 121.679688 65.175781 121.5625 65.503906 121.410156 65.804688 C 120.207031 65.957031 118.945312 65.867188 117.773438 65.503906 C 117.710938 65.472656 117.621094 65.445312 117.53125 65.445312 C 117.441406 65.023438 117.320312 64.601562 117.113281 64.242188 C 116.929688 63.972656 116.71875 63.761719 116.449219 63.609375 C 116.210938 63.492188 115.9375 63.519531 115.757812 63.671875 C 115.546875 63.820312 115.457031 64.0625 115.519531 64.332031 C 115.609375 64.691406 115.820312 65.054688 116.121094 65.355469 C 116.390625 65.59375 116.691406 65.773438 117.019531 65.894531 C 117.5625 68.632812 117.683594 71.425781 117.472656 74.191406 C 117.171875 74.132812 116.902344 74.101562 116.691406 74.042969 C 116.238281 73.921875 115.820312 73.710938 115.457031 73.410156 C 115.429688 73.382812 115.398438 73.351562 115.367188 73.351562 C 114.644531 72.75 114.164062 71.816406 114.164062 70.796875 C 114.136719 69.714844 114.046875 68.332031 113.414062 67.039062 C 113.261719 66.707031 113.054688 66.375 112.902344 66.046875 C 112.632812 65.566406 112.390625 65.082031 112.152344 64.574219 C 110.886719 61.597656 111.429688 57.960938 113.535156 55.492188 C 115.1875 53.570312 117.710938 52.457031 120.238281 52.457031 C 120.929688 52.457031 121.621094 52.546875 122.28125 52.699219 C 124.027344 53.148438 126.007812 54.382812 127.511719 56.035156 C 128.777344 57.386719 129.496094 59.460938 129.496094 61.597656 C 129.585938 64.183594 128.175781 65.894531 126.910156 67.398438 Z M 122.191406 65.714844 C 122.28125 65.535156 122.34375 65.355469 122.433594 65.175781 C 122.582031 64.84375 122.734375 64.542969 123.003906 64.332031 C 123.125 64.242188 123.304688 64.183594 123.453125 64.183594 C 123.484375 64.183594 123.542969 64.183594 123.574219 64.183594 C 123.695312 64.210938 123.785156 64.273438 123.816406 64.390625 C 123.875 64.542969 123.875 64.722656 123.785156 64.902344 C 123.574219 65.292969 123.125 65.472656 122.703125 65.59375 C 122.550781 65.625 122.371094 65.683594 122.191406 65.714844 Z M 116.929688 65.144531 C 116.8125 65.082031 116.71875 64.992188 116.628906 64.902344 C 116.421875 64.691406 116.269531 64.453125 116.210938 64.183594 C 116.210938 64.183594 116.210938 64.152344 116.210938 64.152344 C 116.210938 64.152344 116.238281 64.152344 116.238281 64.152344 C 116.238281 64.152344 116.269531 64.152344 116.269531 64.152344 C 116.449219 64.242188 116.601562 64.390625 116.691406 64.574219 C 116.78125 64.753906 116.871094 64.933594 116.929688 65.144531 Z M 116.929688 65.144531 " fill-opacity="1" fill-rule="nonzero"/></g><path fill="#ffffff" d="M 116.871094 55.011719 C 116.210938 54.832031 115.519531 55.074219 114.976562 55.644531 C 114.375 56.277344 114.285156 57.296875 114.796875 57.988281 C 115.15625 58.46875 115.757812 58.742188 116.359375 58.742188 C 116.601562 58.742188 116.839844 58.679688 117.082031 58.589844 C 117.804688 58.257812 118.464844 57.417969 118.253906 56.515625 C 118.074219 55.734375 117.5625 55.195312 116.871094 55.011719 Z M 116.839844 58.019531 C 116.300781 58.257812 115.636719 58.078125 115.277344 57.597656 C 114.945312 57.148438 115.007812 56.457031 115.429688 56.035156 C 115.820312 55.613281 116.300781 55.464844 116.71875 55.585938 C 117.171875 55.703125 117.53125 56.09375 117.652344 56.636719 C 117.773438 57.207031 117.320312 57.808594 116.839844 58.019531 Z M 116.839844 58.019531 " fill-opacity="1" fill-rule="nonzero"/><g clip-path="url(#38aeb050b6)"><path fill="#ffffff" d="M 122.644531 47.40625 C 122.671875 47.40625 122.671875 47.40625 122.703125 47.40625 C 122.851562 47.40625 122.972656 47.316406 123.003906 47.167969 L 123.695312 44.011719 C 123.726562 43.859375 123.636719 43.679688 123.453125 43.648438 C 123.304688 43.621094 123.125 43.710938 123.09375 43.890625 L 122.402344 47.046875 C 122.371094 47.226562 122.460938 47.378906 122.644531 47.40625 Z M 122.644531 47.40625 " fill-opacity="1" fill-rule="nonzero"/></g><path fill="#ffffff" d="M 114.527344 48.371094 C 114.585938 48.460938 114.675781 48.519531 114.765625 48.519531 C 114.828125 48.519531 114.886719 48.519531 114.917969 48.460938 C 115.066406 48.371094 115.097656 48.1875 115.007812 48.039062 L 112.992188 44.792969 C 112.902344 44.640625 112.722656 44.613281 112.570312 44.703125 C 112.421875 44.792969 112.390625 44.972656 112.480469 45.121094 Z M 114.527344 48.371094 " fill-opacity="1" fill-rule="nonzero"/><path fill="#ffffff" d="M 104.125 55.523438 L 108.09375 56.726562 C 108.121094 56.726562 108.152344 56.726562 108.183594 56.726562 C 108.304688 56.726562 108.421875 56.636719 108.484375 56.515625 C 108.542969 56.367188 108.453125 56.183594 108.273438 56.15625 L 104.304688 54.953125 C 104.15625 54.894531 103.972656 54.984375 103.945312 55.164062 C 103.855469 55.3125 103.945312 55.492188 104.125 55.523438 Z M 104.125 55.523438 " fill-opacity="1" fill-rule="nonzero"/><g clip-path="url(#8871a51871)"><path fill="#ffffff" d="M 107.402344 64.933594 C 107.371094 64.78125 107.222656 64.664062 107.039062 64.691406 L 103.042969 65.535156 C 102.890625 65.566406 102.773438 65.714844 102.800781 65.894531 C 102.832031 66.046875 102.953125 66.136719 103.101562 66.136719 C 103.132812 66.136719 103.132812 66.136719 103.164062 66.136719 L 107.160156 65.292969 C 107.3125 65.265625 107.429688 65.113281 107.402344 64.933594 Z M 107.402344 64.933594 " fill-opacity="1" fill-rule="nonzero"/></g><path fill="#ffffff" d="M 109.296875 70.886719 L 105.988281 72.628906 C 105.839844 72.71875 105.777344 72.898438 105.867188 73.050781 C 105.929688 73.140625 106.019531 73.199219 106.140625 73.199219 C 106.199219 73.199219 106.230469 73.199219 106.289062 73.171875 L 109.597656 71.425781 C 109.746094 71.335938 109.804688 71.15625 109.714844 71.007812 C 109.625 70.886719 109.445312 70.824219 109.296875 70.886719 Z M 109.296875 70.886719 " fill-opacity="1" fill-rule="nonzero"/><path fill="#ffffff" d="M 127.394531 74.402344 C 127.300781 74.28125 127.09375 74.253906 126.972656 74.34375 C 126.851562 74.433594 126.820312 74.644531 126.910156 74.765625 L 129.257812 77.679688 C 129.316406 77.738281 129.40625 77.800781 129.496094 77.800781 C 129.558594 77.800781 129.617188 77.769531 129.675781 77.738281 C 129.796875 77.648438 129.828125 77.4375 129.738281 77.320312 Z M 127.394531 74.402344 " fill-opacity="1" fill-rule="nonzero"/><path fill="#ffffff" d="M 135.417969 70.285156 L 131.632812 68.570312 C 131.480469 68.511719 131.300781 68.570312 131.242188 68.722656 C 131.179688 68.871094 131.242188 69.050781 131.390625 69.113281 L 135.179688 70.824219 C 135.207031 70.855469 135.269531 70.855469 135.300781 70.855469 C 135.417969 70.855469 135.507812 70.796875 135.570312 70.675781 C 135.628906 70.523438 135.570312 70.34375 135.417969 70.285156 Z M 135.417969 70.285156 " fill-opacity="1" fill-rule="nonzero"/><g clip-path="url(#a99fd93856)"><path fill="#ffffff" d="M 136.832031 59.460938 L 133.316406 60.152344 C 133.164062 60.183594 133.042969 60.335938 133.074219 60.515625 C 133.105469 60.664062 133.222656 60.753906 133.375 60.753906 C 133.40625 60.753906 133.40625 60.753906 133.433594 60.753906 L 136.953125 60.0625 C 137.101562 60.035156 137.222656 59.882812 137.191406 59.703125 C 137.164062 59.523438 137.011719 59.433594 136.832031 59.460938 Z M 136.832031 59.460938 " fill-opacity="1" fill-rule="nonzero"/></g><path fill="#ffffff" d="M 134.367188 51.136719 C 134.515625 51.042969 134.546875 50.863281 134.488281 50.714844 C 134.398438 50.5625 134.214844 50.535156 134.066406 50.59375 L 131 52.367188 C 130.851562 52.457031 130.820312 52.636719 130.878906 52.789062 C 130.941406 52.878906 131.03125 52.9375 131.148438 52.9375 C 131.210938 52.9375 131.242188 52.9375 131.300781 52.910156 Z M 134.367188 51.136719 " fill-opacity="1" fill-rule="nonzero"/><g fill="#ffde59" fill-opacity="1"><g transform="translate(83.128094, 90.301834)"><g><path d="M 1.5625 -4.734375 L 1.5625 0 L 0.421875 0 L 0.421875 -4.734375 Z M 1.5625 -4.734375 "/></g></g></g><g fill="#ffde59" fill-opacity="1"><g transform="translate(85.116894, 90.301834)"><g><path d="M 1.5625 -4.984375 L 1.5625 0 L 0.421875 0 L 0.421875 -4.984375 Z M 1.5625 -4.984375 "/></g></g></g><g fill="#ffde59" fill-opacity="1"><g transform="translate(87.105693, 90.301834)"><g><path d="M 1.5625 -4.984375 L 1.5625 0 L 0.421875 0 L 0.421875 -4.984375 Z M 1.5625 -4.984375 "/></g></g></g><g fill="#ffde59" fill-opacity="1"><g transform="translate(89.094493, 90.301834)"><g><path d="M 4.125 -3.75 L 4.125 0 L 2.984375 0 L 2.984375 -0.515625 C 2.859375 -0.347656 2.695312 -0.210938 2.5 -0.109375 C 2.300781 -0.00390625 2.082031 0.046875 1.84375 0.046875 C 1.550781 0.046875 1.296875 -0.015625 1.078125 -0.140625 C 0.859375 -0.273438 0.6875 -0.460938 0.5625 -0.703125 C 0.445312 -0.953125 0.390625 -1.238281 0.390625 -1.5625 L 0.390625 -3.75 L 1.53125 -3.75 L 1.53125 -1.71875 C 1.53125 -1.46875 1.59375 -1.269531 1.71875 -1.125 C 1.851562 -0.988281 2.03125 -0.921875 2.25 -0.921875 C 2.476562 -0.921875 2.65625 -0.988281 2.78125 -1.125 C 2.914062 -1.269531 2.984375 -1.46875 2.984375 -1.71875 L 2.984375 -3.75 Z M 4.125 -3.75 "/></g></g></g><g fill="#ffde59" fill-opacity="1"><g transform="translate(93.638397, 90.301834)"><g><path d="M 1.953125 0.046875 C 1.617188 0.046875 1.320312 -0.00390625 1.0625 -0.109375 C 0.8125 -0.222656 0.613281 -0.378906 0.46875 -0.578125 C 0.320312 -0.773438 0.238281 -0.992188 0.21875 -1.234375 L 1.359375 -1.234375 C 1.367188 -1.097656 1.425781 -0.988281 1.53125 -0.90625 C 1.644531 -0.832031 1.78125 -0.796875 1.9375 -0.796875 C 2.070312 -0.796875 2.179688 -0.820312 2.265625 -0.875 C 2.347656 -0.9375 2.390625 -1.007812 2.390625 -1.09375 C 2.390625 -1.207031 2.332031 -1.289062 2.21875 -1.34375 C 2.101562 -1.394531 1.921875 -1.453125 1.671875 -1.515625 C 1.398438 -1.578125 1.175781 -1.640625 1 -1.703125 C 0.820312 -1.773438 0.664062 -1.882812 0.53125 -2.03125 C 0.40625 -2.1875 0.34375 -2.390625 0.34375 -2.640625 C 0.34375 -2.859375 0.398438 -3.054688 0.515625 -3.234375 C 0.628906 -3.410156 0.800781 -3.550781 1.03125 -3.65625 C 1.269531 -3.757812 1.546875 -3.8125 1.859375 -3.8125 C 2.335938 -3.8125 2.710938 -3.691406 2.984375 -3.453125 C 3.253906 -3.222656 3.410156 -2.914062 3.453125 -2.53125 L 2.390625 -2.53125 C 2.367188 -2.664062 2.304688 -2.769531 2.203125 -2.84375 C 2.109375 -2.914062 1.984375 -2.953125 1.828125 -2.953125 C 1.691406 -2.953125 1.585938 -2.925781 1.515625 -2.875 C 1.453125 -2.820312 1.421875 -2.753906 1.421875 -2.671875 C 1.421875 -2.554688 1.472656 -2.472656 1.578125 -2.421875 C 1.691406 -2.367188 1.875 -2.316406 2.125 -2.265625 C 2.394531 -2.191406 2.617188 -2.117188 2.796875 -2.046875 C 2.972656 -1.984375 3.128906 -1.875 3.265625 -1.71875 C 3.398438 -1.5625 3.46875 -1.351562 3.46875 -1.09375 C 3.46875 -0.875 3.40625 -0.675781 3.28125 -0.5 C 3.15625 -0.332031 2.976562 -0.195312 2.75 -0.09375 C 2.519531 0 2.253906 0.046875 1.953125 0.046875 Z M 1.953125 0.046875 "/></g></g></g><g fill="#ffde59" fill-opacity="1"><g transform="translate(97.400263, 90.301834)"><g><path d="M 2.515625 -0.96875 L 2.515625 0 L 1.921875 0 C 1.503906 0 1.175781 -0.0976562 0.9375 -0.296875 C 0.707031 -0.503906 0.59375 -0.84375 0.59375 -1.3125 L 0.59375 -2.796875 L 0.140625 -2.796875 L 0.140625 -3.75 L 0.59375 -3.75 L 0.59375 -4.671875 L 1.75 -4.671875 L 1.75 -3.75 L 2.5 -3.75 L 2.5 -2.796875 L 1.75 -2.796875 L 1.75 -1.296875 C 1.75 -1.179688 1.773438 -1.097656 1.828125 -1.046875 C 1.878906 -0.992188 1.96875 -0.96875 2.09375 -0.96875 Z M 2.515625 -0.96875 "/></g></g></g><g fill="#ffde59" fill-opacity="1"><g transform="translate(100.137394, 90.301834)"><g><path d="M 1.5625 -3.125 C 1.695312 -3.332031 1.863281 -3.492188 2.0625 -3.609375 C 2.269531 -3.734375 2.5 -3.796875 2.75 -3.796875 L 2.75 -2.578125 L 2.4375 -2.578125 C 2.144531 -2.578125 1.925781 -2.515625 1.78125 -2.390625 C 1.632812 -2.265625 1.5625 -2.050781 1.5625 -1.75 L 1.5625 0 L 0.421875 0 L 0.421875 -3.75 L 1.5625 -3.75 Z M 1.5625 -3.125 "/></g></g></g><g fill="#ffde59" fill-opacity="1"><g transform="translate(103.022838, 90.301834)"><g><path d="M 0.1875 -1.890625 C 0.1875 -2.273438 0.257812 -2.613281 0.40625 -2.90625 C 0.550781 -3.195312 0.75 -3.421875 1 -3.578125 C 1.25 -3.734375 1.53125 -3.8125 1.84375 -3.8125 C 2.113281 -3.8125 2.347656 -3.753906 2.546875 -3.640625 C 2.742188 -3.535156 2.894531 -3.394531 3 -3.21875 L 3 -3.75 L 4.15625 -3.75 L 4.15625 0 L 3 0 L 3 -0.53125 C 2.882812 -0.351562 2.726562 -0.210938 2.53125 -0.109375 C 2.332031 -0.00390625 2.101562 0.046875 1.84375 0.046875 C 1.53125 0.046875 1.25 -0.03125 1 -0.1875 C 0.75 -0.34375 0.550781 -0.566406 0.40625 -0.859375 C 0.257812 -1.160156 0.1875 -1.503906 0.1875 -1.890625 Z M 3 -1.875 C 3 -2.164062 2.921875 -2.394531 2.765625 -2.5625 C 2.609375 -2.726562 2.414062 -2.8125 2.1875 -2.8125 C 1.957031 -2.8125 1.757812 -2.726562 1.59375 -2.5625 C 1.4375 -2.394531 1.359375 -2.171875 1.359375 -1.890625 C 1.359375 -1.597656 1.4375 -1.367188 1.59375 -1.203125 C 1.757812 -1.035156 1.957031 -0.953125 2.1875 -0.953125 C 2.414062 -0.953125 2.609375 -1.035156 2.765625 -1.203125 C 2.921875 -1.367188 3 -1.59375 3 -1.875 Z M 3 -1.875 "/></g></g></g><g fill="#ffde59" fill-opacity="1"><g transform="translate(107.600449, 90.301834)"><g><path d="M 2.515625 -0.96875 L 2.515625 0 L 1.921875 0 C 1.503906 0 1.175781 -0.0976562 0.9375 -0.296875 C 0.707031 -0.503906 0.59375 -0.84375 0.59375 -1.3125 L 0.59375 -2.796875 L 0.140625 -2.796875 L 0.140625 -3.75 L 0.59375 -3.75 L 0.59375 -4.671875 L 1.75 -4.671875 L 1.75 -3.75 L 2.5 -3.75 L 2.5 -2.796875 L 1.75 -2.796875 L 1.75 -1.296875 C 1.75 -1.179688 1.773438 -1.097656 1.828125 -1.046875 C 1.878906 -0.992188 1.96875 -0.96875 2.09375 -0.96875 Z M 2.515625 -0.96875 "/></g></g></g><g fill="#ffde59" fill-opacity="1"><g transform="translate(110.337581, 90.301834)"><g><path d="M 1 -4.140625 C 0.789062 -4.140625 0.625 -4.195312 0.5 -4.3125 C 0.375 -4.4375 0.3125 -4.585938 0.3125 -4.765625 C 0.3125 -4.941406 0.375 -5.085938 0.5 -5.203125 C 0.625 -5.328125 0.789062 -5.390625 1 -5.390625 C 1.195312 -5.390625 1.359375 -5.328125 1.484375 -5.203125 C 1.609375 -5.085938 1.671875 -4.941406 1.671875 -4.765625 C 1.671875 -4.585938 1.609375 -4.4375 1.484375 -4.3125 C 1.359375 -4.195312 1.195312 -4.140625 1 -4.140625 Z M 1.5625 -3.75 L 1.5625 0 L 0.421875 0 L 0.421875 -3.75 Z M 1.5625 -3.75 "/></g></g></g><g fill="#ffde59" fill-opacity="1"><g transform="translate(112.326381, 90.301834)"><g><path d="M 2.125 0.046875 C 1.757812 0.046875 1.425781 -0.03125 1.125 -0.1875 C 0.832031 -0.34375 0.601562 -0.566406 0.4375 -0.859375 C 0.269531 -1.148438 0.1875 -1.488281 0.1875 -1.875 C 0.1875 -2.257812 0.269531 -2.597656 0.4375 -2.890625 C 0.613281 -3.191406 0.847656 -3.421875 1.140625 -3.578125 C 1.441406 -3.734375 1.773438 -3.8125 2.140625 -3.8125 C 2.503906 -3.8125 2.832031 -3.734375 3.125 -3.578125 C 3.425781 -3.421875 3.660156 -3.191406 3.828125 -2.890625 C 4.003906 -2.597656 4.09375 -2.257812 4.09375 -1.875 C 4.09375 -1.488281 4.003906 -1.148438 3.828125 -0.859375 C 3.660156 -0.566406 3.425781 -0.34375 3.125 -0.1875 C 2.832031 -0.03125 2.5 0.046875 2.125 0.046875 Z M 2.125 -0.9375 C 2.34375 -0.9375 2.53125 -1.015625 2.6875 -1.171875 C 2.84375 -1.335938 2.921875 -1.570312 2.921875 -1.875 C 2.921875 -2.175781 2.84375 -2.40625 2.6875 -2.5625 C 2.539062 -2.726562 2.359375 -2.8125 2.140625 -2.8125 C 1.921875 -2.8125 1.734375 -2.734375 1.578125 -2.578125 C 1.429688 -2.421875 1.359375 -2.1875 1.359375 -1.875 C 1.359375 -1.570312 1.429688 -1.335938 1.578125 -1.171875 C 1.722656 -1.015625 1.90625 -0.9375 2.125 -0.9375 Z M 2.125 -0.9375 "/></g></g></g><g fill="#ffde59" fill-opacity="1"><g transform="translate(116.620843, 90.301834)"><g><path d="M 2.703125 -3.796875 C 3.140625 -3.796875 3.488281 -3.648438 3.75 -3.359375 C 4.019531 -3.078125 4.15625 -2.691406 4.15625 -2.203125 L 4.15625 0 L 3.015625 0 L 3.015625 -2.046875 C 3.015625 -2.296875 2.945312 -2.488281 2.8125 -2.625 C 2.6875 -2.757812 2.515625 -2.828125 2.296875 -2.828125 C 2.066406 -2.828125 1.882812 -2.757812 1.75 -2.625 C 1.625 -2.488281 1.5625 -2.296875 1.5625 -2.046875 L 1.5625 0 L 0.421875 0 L 0.421875 -3.75 L 1.5625 -3.75 L 1.5625 -3.265625 C 1.6875 -3.429688 1.847656 -3.5625 2.046875 -3.65625 C 2.242188 -3.75 2.460938 -3.796875 2.703125 -3.796875 Z M 2.703125 -3.796875 "/></g></g></g><g fill="#ffde59" fill-opacity="1"><g transform="translate(121.164748, 90.301834)"><g><path d="M 1.953125 0.046875 C 1.617188 0.046875 1.320312 -0.00390625 1.0625 -0.109375 C 0.8125 -0.222656 0.613281 -0.378906 0.46875 -0.578125 C 0.320312 -0.773438 0.238281 -0.992188 0.21875 -1.234375 L 1.359375 -1.234375 C 1.367188 -1.097656 1.425781 -0.988281 1.53125 -0.90625 C 1.644531 -0.832031 1.78125 -0.796875 1.9375 -0.796875 C 2.070312 -0.796875 2.179688 -0.820312 2.265625 -0.875 C 2.347656 -0.9375 2.390625 -1.007812 2.390625 -1.09375 C 2.390625 -1.207031 2.332031 -1.289062 2.21875 -1.34375 C 2.101562 -1.394531 1.921875 -1.453125 1.671875 -1.515625 C 1.398438 -1.578125 1.175781 -1.640625 1 -1.703125 C 0.820312 -1.773438 0.664062 -1.882812 0.53125 -2.03125 C 0.40625 -2.1875 0.34375 -2.390625 0.34375 -2.640625 C 0.34375 -2.859375 0.398438 -3.054688 0.515625 -3.234375 C 0.628906 -3.410156 0.800781 -3.550781 1.03125 -3.65625 C 1.269531 -3.757812 1.546875 -3.8125 1.859375 -3.8125 C 2.335938 -3.8125 2.710938 -3.691406 2.984375 -3.453125 C 3.253906 -3.222656 3.410156 -2.914062 3.453125 -2.53125 L 2.390625 -2.53125 C 2.367188 -2.664062 2.304688 -2.769531 2.203125 -2.84375 C 2.109375 -2.914062 1.984375 -2.953125 1.828125 -2.953125 C 1.691406 -2.953125 1.585938 -2.925781 1.515625 -2.875 C 1.453125 -2.820312 1.421875 -2.753906 1.421875 -2.671875 C 1.421875 -2.554688 1.472656 -2.472656 1.578125 -2.421875 C 1.691406 -2.367188 1.875 -2.316406 2.125 -2.265625 C 2.394531 -2.191406 2.617188 -2.117188 2.796875 -2.046875 C 2.972656 -1.984375 3.128906 -1.875 3.265625 -1.71875 C 3.398438 -1.5625 3.46875 -1.351562 3.46875 -1.09375 C 3.46875 -0.875 3.40625 -0.675781 3.28125 -0.5 C 3.15625 -0.332031 2.976562 -0.195312 2.75 -0.09375 C 2.519531 0 2.253906 0.046875 1.953125 0.046875 Z M 1.953125 0.046875 "/></g></g></g><g fill="#ffde59" fill-opacity="1"><g transform="translate(124.926613, 90.301834)"><g/></g></g><g fill="#ffde59" fill-opacity="1"><g transform="translate(126.355854, 90.301834)"><g><path d="M 2.125 0.046875 C 1.78125 0.046875 1.46875 -0.0078125 1.1875 -0.125 C 0.914062 -0.238281 0.695312 -0.40625 0.53125 -0.625 C 0.375 -0.84375 0.289062 -1.109375 0.28125 -1.421875 L 1.515625 -1.421875 C 1.523438 -1.242188 1.582031 -1.109375 1.6875 -1.015625 C 1.789062 -0.921875 1.925781 -0.875 2.09375 -0.875 C 2.257812 -0.875 2.390625 -0.910156 2.484375 -0.984375 C 2.585938 -1.066406 2.640625 -1.175781 2.640625 -1.3125 C 2.640625 -1.4375 2.597656 -1.535156 2.515625 -1.609375 C 2.441406 -1.679688 2.347656 -1.742188 2.234375 -1.796875 C 2.117188 -1.847656 1.957031 -1.90625 1.75 -1.96875 C 1.445312 -2.0625 1.195312 -2.15625 1 -2.25 C 0.8125 -2.34375 0.644531 -2.476562 0.5 -2.65625 C 0.363281 -2.84375 0.296875 -3.085938 0.296875 -3.390625 C 0.296875 -3.828125 0.453125 -4.171875 0.765625 -4.421875 C 1.085938 -4.671875 1.503906 -4.796875 2.015625 -4.796875 C 2.535156 -4.796875 2.953125 -4.671875 3.265625 -4.421875 C 3.585938 -4.171875 3.765625 -3.820312 3.796875 -3.375 L 2.546875 -3.375 C 2.535156 -3.53125 2.476562 -3.648438 2.375 -3.734375 C 2.269531 -3.828125 2.140625 -3.875 1.984375 -3.875 C 1.835938 -3.875 1.722656 -3.835938 1.640625 -3.765625 C 1.554688 -3.691406 1.515625 -3.582031 1.515625 -3.4375 C 1.515625 -3.289062 1.585938 -3.171875 1.734375 -3.078125 C 1.878906 -2.992188 2.101562 -2.90625 2.40625 -2.8125 C 2.707031 -2.707031 2.953125 -2.609375 3.140625 -2.515625 C 3.335938 -2.421875 3.503906 -2.28125 3.640625 -2.09375 C 3.785156 -1.914062 3.859375 -1.6875 3.859375 -1.40625 C 3.859375 -1.132812 3.785156 -0.890625 3.640625 -0.671875 C 3.503906 -0.453125 3.304688 -0.273438 3.046875 -0.140625 C 2.785156 -0.015625 2.476562 0.046875 2.125 0.046875 Z M 2.125 0.046875 "/></g></g></g><g fill="#ffde59" fill-opacity="1"><g transform="translate(130.501997, 90.301834)"><g><path d="M 4.859375 -4.734375 L 3.171875 0 L 1.734375 0 L 0.0625 -4.734375 L 1.28125 -4.734375 L 2.453125 -1.15625 L 3.640625 -4.734375 Z M 4.859375 -4.734375 "/></g></g></g><g fill="#ffde59" fill-opacity="1"><g transform="translate(135.423432, 90.301834)"><g><path d="M 3.5625 -3.234375 C 3.46875 -3.390625 3.34375 -3.507812 3.1875 -3.59375 C 3.03125 -3.675781 2.84375 -3.71875 2.625 -3.71875 C 2.25 -3.71875 1.945312 -3.59375 1.71875 -3.34375 C 1.5 -3.101562 1.390625 -2.78125 1.390625 -2.375 C 1.390625 -1.9375 1.503906 -1.59375 1.734375 -1.34375 C 1.972656 -1.101562 2.300781 -0.984375 2.71875 -0.984375 C 3 -0.984375 3.238281 -1.054688 3.4375 -1.203125 C 3.632812 -1.347656 3.773438 -1.550781 3.859375 -1.8125 L 2.40625 -1.8125 L 2.40625 -2.671875 L 4.90625 -2.671875 L 4.90625 -1.59375 C 4.820312 -1.3125 4.675781 -1.046875 4.46875 -0.796875 C 4.269531 -0.546875 4.007812 -0.34375 3.6875 -0.1875 C 3.375 -0.0390625 3.023438 0.03125 2.640625 0.03125 C 2.171875 0.03125 1.75 -0.0664062 1.375 -0.265625 C 1.007812 -0.472656 0.722656 -0.757812 0.515625 -1.125 C 0.316406 -1.488281 0.21875 -1.90625 0.21875 -2.375 C 0.21875 -2.84375 0.316406 -3.257812 0.515625 -3.625 C 0.722656 -3.988281 1.007812 -4.269531 1.375 -4.46875 C 1.738281 -4.675781 2.15625 -4.78125 2.625 -4.78125 C 3.1875 -4.78125 3.660156 -4.640625 4.046875 -4.359375 C 4.441406 -4.085938 4.703125 -3.710938 4.828125 -3.234375 Z M 3.5625 -3.234375 "/></g></g></g><g fill="#ffde59" fill-opacity="1"><g transform="translate(140.560601, 90.301834)"><g/></g></g><g fill="#ffde59" fill-opacity="1"><g transform="translate(141.989842, 90.301834)"><g><path d="M 3.5 -4.734375 L 3.5 -3.8125 L 1.5625 -3.8125 L 1.5625 -2.8125 L 3.015625 -2.8125 L 3.015625 -1.90625 L 1.5625 -1.90625 L 1.5625 0 L 0.421875 0 L 0.421875 -4.734375 Z M 3.5 -4.734375 "/></g></g></g><g fill="#ffde59" fill-opacity="1"><g transform="translate(145.677547, 90.301834)"><g><path d="M 1.5625 -3.125 C 1.695312 -3.332031 1.863281 -3.492188 2.0625 -3.609375 C 2.269531 -3.734375 2.5 -3.796875 2.75 -3.796875 L 2.75 -2.578125 L 2.4375 -2.578125 C 2.144531 -2.578125 1.925781 -2.515625 1.78125 -2.390625 C 1.632812 -2.265625 1.5625 -2.050781 1.5625 -1.75 L 1.5625 0 L 0.421875 0 L 0.421875 -3.75 L 1.5625 -3.75 Z M 1.5625 -3.125 "/></g></g></g><g fill="#ffde59" fill-opacity="1"><g transform="translate(148.562991, 90.301834)"><g><path d="M 3.953125 -1.9375 C 3.953125 -1.832031 3.945312 -1.722656 3.9375 -1.609375 L 1.328125 -1.609375 C 1.347656 -1.367188 1.421875 -1.1875 1.546875 -1.0625 C 1.679688 -0.9375 1.847656 -0.875 2.046875 -0.875 C 2.335938 -0.875 2.535156 -1 2.640625 -1.25 L 3.875 -1.25 C 3.8125 -1 3.695312 -0.773438 3.53125 -0.578125 C 3.363281 -0.378906 3.15625 -0.222656 2.90625 -0.109375 C 2.664062 -0.00390625 2.394531 0.046875 2.09375 0.046875 C 1.71875 0.046875 1.382812 -0.03125 1.09375 -0.1875 C 0.8125 -0.34375 0.585938 -0.566406 0.421875 -0.859375 C 0.265625 -1.148438 0.1875 -1.488281 0.1875 -1.875 C 0.1875 -2.269531 0.265625 -2.613281 0.421875 -2.90625 C 0.585938 -3.195312 0.8125 -3.421875 1.09375 -3.578125 C 1.382812 -3.734375 1.71875 -3.8125 2.09375 -3.8125 C 2.457031 -3.8125 2.78125 -3.734375 3.0625 -3.578125 C 3.34375 -3.429688 3.5625 -3.210938 3.71875 -2.921875 C 3.875 -2.640625 3.953125 -2.3125 3.953125 -1.9375 Z M 2.78125 -2.25 C 2.78125 -2.4375 2.710938 -2.585938 2.578125 -2.703125 C 2.441406 -2.828125 2.273438 -2.890625 2.078125 -2.890625 C 1.878906 -2.890625 1.710938 -2.832031 1.578125 -2.71875 C 1.453125 -2.601562 1.375 -2.445312 1.34375 -2.25 Z M 2.78125 -2.25 "/></g></g></g><g fill="#ffde59" fill-opacity="1"><g transform="translate(152.71588, 90.301834)"><g><path d="M 3.953125 -1.9375 C 3.953125 -1.832031 3.945312 -1.722656 3.9375 -1.609375 L 1.328125 -1.609375 C 1.347656 -1.367188 1.421875 -1.1875 1.546875 -1.0625 C 1.679688 -0.9375 1.847656 -0.875 2.046875 -0.875 C 2.335938 -0.875 2.535156 -1 2.640625 -1.25 L 3.875 -1.25 C 3.8125 -1 3.695312 -0.773438 3.53125 -0.578125 C 3.363281 -0.378906 3.15625 -0.222656 2.90625 -0.109375 C 2.664062 -0.00390625 2.394531 0.046875 2.09375 0.046875 C 1.71875 0.046875 1.382812 -0.03125 1.09375 -0.1875 C 0.8125 -0.34375 0.585938 -0.566406 0.421875 -0.859375 C 0.265625 -1.148438 0.1875 -1.488281 0.1875 -1.875 C 0.1875 -2.269531 0.265625 -2.613281 0.421875 -2.90625 C 0.585938 -3.195312 0.8125 -3.421875 1.09375 -3.578125 C 1.382812 -3.734375 1.71875 -3.8125 2.09375 -3.8125 C 2.457031 -3.8125 2.78125 -3.734375 3.0625 -3.578125 C 3.34375 -3.429688 3.5625 -3.210938 3.71875 -2.921875 C 3.875 -2.640625 3.953125 -2.3125 3.953125 -1.9375 Z M 2.78125 -2.25 C 2.78125 -2.4375 2.710938 -2.585938 2.578125 -2.703125 C 2.441406 -2.828125 2.273438 -2.890625 2.078125 -2.890625 C 1.878906 -2.890625 1.710938 -2.832031 1.578125 -2.71875 C 1.453125 -2.601562 1.375 -2.445312 1.34375 -2.25 Z M 2.78125 -2.25 "/></g></g></g><g fill="#d9d9d9" fill-opacity="1"><g transform="translate(92.362504, 99.113772)"><g><path d="M 2.53125 -2.796875 L 1.46875 0 L 1.15625 0 L 0.09375 -2.796875 L 0.40625 -2.796875 L 1.3125 -0.296875 L 2.234375 -2.796875 Z M 2.53125 -2.796875 "/></g></g></g><g fill="#d9d9d9" fill-opacity="1"><g transform="translate(94.99852, 99.113772)"><g><path d="M 0.453125 -2.59375 C 0.398438 -2.59375 0.351562 -2.613281 0.3125 -2.65625 C 0.269531 -2.695312 0.25 -2.742188 0.25 -2.796875 C 0.25 -2.859375 0.269531 -2.910156 0.3125 -2.953125 C 0.351562 -2.992188 0.398438 -3.015625 0.453125 -3.015625 C 0.515625 -3.015625 0.5625 -2.992188 0.59375 -2.953125 C 0.632812 -2.910156 0.65625 -2.859375 0.65625 -2.796875 C 0.65625 -2.742188 0.632812 -2.695312 0.59375 -2.65625 C 0.5625 -2.613281 0.515625 -2.59375 0.453125 -2.59375 Z M 0.59375 -2.1875 L 0.59375 0 L 0.3125 0 L 0.3125 -2.1875 Z M 0.59375 -2.1875 "/></g></g></g><g fill="#d9d9d9" fill-opacity="1"><g transform="translate(95.914525, 99.113772)"><g><path d="M 1.078125 0.03125 C 0.828125 0.03125 0.617188 -0.0234375 0.453125 -0.140625 C 0.296875 -0.253906 0.207031 -0.410156 0.1875 -0.609375 L 0.484375 -0.609375 C 0.492188 -0.492188 0.550781 -0.394531 0.65625 -0.3125 C 0.757812 -0.238281 0.894531 -0.203125 1.0625 -0.203125 C 1.21875 -0.203125 1.335938 -0.238281 1.421875 -0.3125 C 1.515625 -0.382812 1.5625 -0.472656 1.5625 -0.578125 C 1.5625 -0.648438 1.535156 -0.710938 1.484375 -0.765625 C 1.429688 -0.816406 1.367188 -0.851562 1.296875 -0.875 C 1.222656 -0.90625 1.125 -0.9375 1 -0.96875 C 0.84375 -1.007812 0.710938 -1.050781 0.609375 -1.09375 C 0.503906 -1.132812 0.414062 -1.195312 0.34375 -1.28125 C 0.28125 -1.363281 0.25 -1.476562 0.25 -1.625 C 0.25 -1.726562 0.28125 -1.828125 0.34375 -1.921875 C 0.40625 -2.015625 0.492188 -2.085938 0.609375 -2.140625 C 0.722656 -2.191406 0.859375 -2.21875 1.015625 -2.21875 C 1.242188 -2.21875 1.429688 -2.15625 1.578125 -2.03125 C 1.722656 -1.914062 1.800781 -1.753906 1.8125 -1.546875 L 1.53125 -1.546875 C 1.519531 -1.671875 1.46875 -1.769531 1.375 -1.84375 C 1.289062 -1.925781 1.164062 -1.96875 1 -1.96875 C 0.863281 -1.96875 0.75 -1.9375 0.65625 -1.875 C 0.570312 -1.8125 0.53125 -1.726562 0.53125 -1.625 C 0.53125 -1.539062 0.554688 -1.472656 0.609375 -1.421875 C 0.660156 -1.367188 0.722656 -1.328125 0.796875 -1.296875 C 0.878906 -1.265625 0.984375 -1.226562 1.109375 -1.1875 C 1.265625 -1.144531 1.390625 -1.101562 1.484375 -1.0625 C 1.578125 -1.019531 1.65625 -0.957031 1.71875 -0.875 C 1.789062 -0.800781 1.828125 -0.703125 1.828125 -0.578125 C 1.828125 -0.460938 1.796875 -0.359375 1.734375 -0.265625 C 1.671875 -0.171875 1.582031 -0.0976562 1.46875 -0.046875 C 1.351562 0.00390625 1.222656 0.03125 1.078125 0.03125 Z M 1.078125 0.03125 "/></g></g></g><g fill="#d9d9d9" fill-opacity="1"><g transform="translate(97.954538, 99.113772)"><g><path d="M 2.21875 -2.1875 L 2.21875 0 L 1.9375 0 L 1.9375 -0.390625 C 1.875 -0.253906 1.773438 -0.148438 1.640625 -0.078125 C 1.503906 -0.00390625 1.351562 0.03125 1.1875 0.03125 C 0.925781 0.03125 0.710938 -0.046875 0.546875 -0.203125 C 0.378906 -0.367188 0.296875 -0.601562 0.296875 -0.90625 L 0.296875 -2.1875 L 0.578125 -2.1875 L 0.578125 -0.9375 C 0.578125 -0.695312 0.632812 -0.515625 0.75 -0.390625 C 0.875 -0.265625 1.035156 -0.203125 1.234375 -0.203125 C 1.453125 -0.203125 1.625 -0.269531 1.75 -0.40625 C 1.875 -0.539062 1.9375 -0.738281 1.9375 -1 L 1.9375 -2.1875 Z M 2.21875 -2.1875 "/></g></g></g><g fill="#d9d9d9" fill-opacity="1"><g transform="translate(100.486556, 99.113772)"><g><path d="M 0.1875 -1.09375 C 0.1875 -1.320312 0.226562 -1.519531 0.3125 -1.6875 C 0.40625 -1.851562 0.53125 -1.984375 0.6875 -2.078125 C 0.851562 -2.171875 1.035156 -2.21875 1.234375 -2.21875 C 1.441406 -2.21875 1.617188 -2.164062 1.765625 -2.0625 C 1.921875 -1.96875 2.03125 -1.847656 2.09375 -1.703125 L 2.09375 -2.1875 L 2.375 -2.1875 L 2.375 0 L 2.09375 0 L 2.09375 -0.484375 C 2.03125 -0.335938 1.921875 -0.210938 1.765625 -0.109375 C 1.617188 -0.015625 1.441406 0.03125 1.234375 0.03125 C 1.035156 0.03125 0.851562 -0.015625 0.6875 -0.109375 C 0.53125 -0.203125 0.40625 -0.332031 0.3125 -0.5 C 0.226562 -0.675781 0.1875 -0.875 0.1875 -1.09375 Z M 2.09375 -1.09375 C 2.09375 -1.269531 2.054688 -1.421875 1.984375 -1.546875 C 1.921875 -1.679688 1.828125 -1.785156 1.703125 -1.859375 C 1.578125 -1.929688 1.4375 -1.96875 1.28125 -1.96875 C 1.132812 -1.96875 1 -1.929688 0.875 -1.859375 C 0.75 -1.796875 0.648438 -1.695312 0.578125 -1.5625 C 0.503906 -1.4375 0.46875 -1.28125 0.46875 -1.09375 C 0.46875 -0.914062 0.503906 -0.757812 0.578125 -0.625 C 0.648438 -0.488281 0.75 -0.382812 0.875 -0.3125 C 1 -0.25 1.132812 -0.21875 1.28125 -0.21875 C 1.4375 -0.21875 1.578125 -0.25 1.703125 -0.3125 C 1.828125 -0.382812 1.921875 -0.488281 1.984375 -0.625 C 2.054688 -0.757812 2.09375 -0.914062 2.09375 -1.09375 Z M 2.09375 -1.09375 "/></g></g></g><g fill="#d9d9d9" fill-opacity="1"><g transform="translate(103.186572, 99.113772)"><g><path d="M 0.59375 -2.953125 L 0.59375 0 L 0.3125 0 L 0.3125 -2.953125 Z M 0.59375 -2.953125 "/></g></g></g><g fill="#d9d9d9" fill-opacity="1"><g transform="translate(104.102577, 99.113772)"><g><path d="M 1.078125 0.03125 C 0.828125 0.03125 0.617188 -0.0234375 0.453125 -0.140625 C 0.296875 -0.253906 0.207031 -0.410156 0.1875 -0.609375 L 0.484375 -0.609375 C 0.492188 -0.492188 0.550781 -0.394531 0.65625 -0.3125 C 0.757812 -0.238281 0.894531 -0.203125 1.0625 -0.203125 C 1.21875 -0.203125 1.335938 -0.238281 1.421875 -0.3125 C 1.515625 -0.382812 1.5625 -0.472656 1.5625 -0.578125 C 1.5625 -0.648438 1.535156 -0.710938 1.484375 -0.765625 C 1.429688 -0.816406 1.367188 -0.851562 1.296875 -0.875 C 1.222656 -0.90625 1.125 -0.9375 1 -0.96875 C 0.84375 -1.007812 0.710938 -1.050781 0.609375 -1.09375 C 0.503906 -1.132812 0.414062 -1.195312 0.34375 -1.28125 C 0.28125 -1.363281 0.25 -1.476562 0.25 -1.625 C 0.25 -1.726562 0.28125 -1.828125 0.34375 -1.921875 C 0.40625 -2.015625 0.492188 -2.085938 0.609375 -2.140625 C 0.722656 -2.191406 0.859375 -2.21875 1.015625 -2.21875 C 1.242188 -2.21875 1.429688 -2.15625 1.578125 -2.03125 C 1.722656 -1.914062 1.800781 -1.753906 1.8125 -1.546875 L 1.53125 -1.546875 C 1.519531 -1.671875 1.46875 -1.769531 1.375 -1.84375 C 1.289062 -1.925781 1.164062 -1.96875 1 -1.96875 C 0.863281 -1.96875 0.75 -1.9375 0.65625 -1.875 C 0.570312 -1.8125 0.53125 -1.726562 0.53125 -1.625 C 0.53125 -1.539062 0.554688 -1.472656 0.609375 -1.421875 C 0.660156 -1.367188 0.722656 -1.328125 0.796875 -1.296875 C 0.878906 -1.265625 0.984375 -1.226562 1.109375 -1.1875 C 1.265625 -1.144531 1.390625 -1.101562 1.484375 -1.0625 C 1.578125 -1.019531 1.65625 -0.957031 1.71875 -0.875 C 1.789062 -0.800781 1.828125 -0.703125 1.828125 -0.578125 C 1.828125 -0.460938 1.796875 -0.359375 1.734375 -0.265625 C 1.671875 -0.171875 1.582031 -0.0976562 1.46875 -0.046875 C 1.351562 0.00390625 1.222656 0.03125 1.078125 0.03125 Z M 1.078125 0.03125 "/></g></g></g><g fill="#d9d9d9" fill-opacity="1"><g transform="translate(106.142591, 99.113772)"><g/></g></g><g fill="#d9d9d9" fill-opacity="1"><g transform="translate(107.238599, 99.113772)"><g><path d="M 1.1875 -1.953125 L 0.671875 -1.953125 L 0.671875 0 L 0.390625 0 L 0.390625 -1.953125 L 0.09375 -1.953125 L 0.09375 -2.1875 L 0.390625 -2.1875 L 0.390625 -2.34375 C 0.390625 -2.570312 0.445312 -2.742188 0.5625 -2.859375 C 0.6875 -2.972656 0.882812 -3.03125 1.15625 -3.03125 L 1.15625 -2.78125 C 0.976562 -2.78125 0.851562 -2.742188 0.78125 -2.671875 C 0.707031 -2.609375 0.671875 -2.5 0.671875 -2.34375 L 0.671875 -2.1875 L 1.1875 -2.1875 Z M 1.1875 -1.953125 "/></g></g></g><g fill="#d9d9d9" fill-opacity="1"><g transform="translate(108.538606, 99.113772)"><g><path d="M 1.28125 0.03125 C 1.070312 0.03125 0.882812 -0.015625 0.71875 -0.109375 C 0.550781 -0.203125 0.421875 -0.332031 0.328125 -0.5 C 0.234375 -0.664062 0.1875 -0.863281 0.1875 -1.09375 C 0.1875 -1.320312 0.234375 -1.519531 0.328125 -1.6875 C 0.429688 -1.851562 0.5625 -1.984375 0.71875 -2.078125 C 0.882812 -2.171875 1.070312 -2.21875 1.28125 -2.21875 C 1.488281 -2.21875 1.675781 -2.171875 1.84375 -2.078125 C 2.007812 -1.984375 2.140625 -1.851562 2.234375 -1.6875 C 2.328125 -1.519531 2.375 -1.320312 2.375 -1.09375 C 2.375 -0.863281 2.328125 -0.664062 2.234375 -0.5 C 2.140625 -0.332031 2.003906 -0.203125 1.828125 -0.109375 C 1.660156 -0.015625 1.476562 0.03125 1.28125 0.03125 Z M 1.28125 -0.21875 C 1.414062 -0.21875 1.546875 -0.25 1.671875 -0.3125 C 1.796875 -0.375 1.894531 -0.46875 1.96875 -0.59375 C 2.050781 -0.726562 2.09375 -0.894531 2.09375 -1.09375 C 2.09375 -1.28125 2.050781 -1.441406 1.96875 -1.578125 C 1.894531 -1.710938 1.796875 -1.8125 1.671875 -1.875 C 1.554688 -1.9375 1.425781 -1.96875 1.28125 -1.96875 C 1.132812 -1.96875 1 -1.9375 0.875 -1.875 C 0.757812 -1.8125 0.660156 -1.710938 0.578125 -1.578125 C 0.503906 -1.441406 0.46875 -1.28125 0.46875 -1.09375 C 0.46875 -0.894531 0.503906 -0.726562 0.578125 -0.59375 C 0.660156 -0.46875 0.757812 -0.375 0.875 -0.3125 C 1 -0.25 1.132812 -0.21875 1.28125 -0.21875 Z M 1.28125 -0.21875 "/></g></g></g><g fill="#d9d9d9" fill-opacity="1"><g transform="translate(111.106624, 99.113772)"><g><path d="M 0.59375 -1.796875 C 0.65625 -1.929688 0.75 -2.035156 0.875 -2.109375 C 1.007812 -2.179688 1.164062 -2.21875 1.34375 -2.21875 L 1.34375 -1.9375 L 1.265625 -1.9375 C 1.066406 -1.9375 0.90625 -1.878906 0.78125 -1.765625 C 0.65625 -1.660156 0.59375 -1.476562 0.59375 -1.21875 L 0.59375 0 L 0.3125 0 L 0.3125 -2.1875 L 0.59375 -2.1875 Z M 0.59375 -1.796875 "/></g></g></g><g fill="#d9d9d9" fill-opacity="1"><g transform="translate(112.554632, 99.113772)"><g/></g></g><g fill="#d9d9d9" fill-opacity="1"><g transform="translate(113.65064, 99.113772)"><g><path d="M 0.1875 -1.09375 C 0.1875 -1.320312 0.234375 -1.519531 0.328125 -1.6875 C 0.421875 -1.851562 0.546875 -1.984375 0.703125 -2.078125 C 0.859375 -2.171875 1.039062 -2.21875 1.25 -2.21875 C 1.519531 -2.21875 1.742188 -2.148438 1.921875 -2.015625 C 2.097656 -1.878906 2.207031 -1.695312 2.25 -1.46875 L 1.953125 -1.46875 C 1.921875 -1.625 1.84375 -1.742188 1.71875 -1.828125 C 1.59375 -1.921875 1.4375 -1.96875 1.25 -1.96875 C 1.101562 -1.96875 0.972656 -1.9375 0.859375 -1.875 C 0.742188 -1.8125 0.648438 -1.710938 0.578125 -1.578125 C 0.503906 -1.441406 0.46875 -1.28125 0.46875 -1.09375 C 0.46875 -0.894531 0.503906 -0.726562 0.578125 -0.59375 C 0.648438 -0.46875 0.742188 -0.367188 0.859375 -0.296875 C 0.972656 -0.234375 1.101562 -0.203125 1.25 -0.203125 C 1.4375 -0.203125 1.59375 -0.242188 1.71875 -0.328125 C 1.84375 -0.421875 1.921875 -0.550781 1.953125 -0.71875 L 2.25 -0.71875 C 2.207031 -0.488281 2.097656 -0.304688 1.921875 -0.171875 C 1.742188 -0.0351562 1.519531 0.03125 1.25 0.03125 C 1.039062 0.03125 0.859375 -0.015625 0.703125 -0.109375 C 0.546875 -0.203125 0.421875 -0.332031 0.328125 -0.5 C 0.234375 -0.664062 0.1875 -0.863281 0.1875 -1.09375 Z M 0.1875 -1.09375 "/></g></g></g><g fill="#d9d9d9" fill-opacity="1"><g transform="translate(116.102656, 99.113772)"><g><path d="M 0.59375 -1.796875 C 0.65625 -1.929688 0.75 -2.035156 0.875 -2.109375 C 1.007812 -2.179688 1.164062 -2.21875 1.34375 -2.21875 L 1.34375 -1.9375 L 1.265625 -1.9375 C 1.066406 -1.9375 0.90625 -1.878906 0.78125 -1.765625 C 0.65625 -1.660156 0.59375 -1.476562 0.59375 -1.21875 L 0.59375 0 L 0.3125 0 L 0.3125 -2.1875 L 0.59375 -2.1875 Z M 0.59375 -1.796875 "/></g></g></g><g fill="#d9d9d9" fill-opacity="1"><g transform="translate(117.550663, 99.113772)"><g><path d="M 2.296875 -1.203125 C 2.296875 -1.109375 2.289062 -1.035156 2.28125 -0.984375 L 0.46875 -0.984375 C 0.476562 -0.816406 0.519531 -0.675781 0.59375 -0.5625 C 0.664062 -0.445312 0.757812 -0.359375 0.875 -0.296875 C 1 -0.234375 1.128906 -0.203125 1.265625 -0.203125 C 1.441406 -0.203125 1.59375 -0.242188 1.71875 -0.328125 C 1.84375 -0.421875 1.925781 -0.539062 1.96875 -0.6875 L 2.265625 -0.6875 C 2.210938 -0.476562 2.097656 -0.304688 1.921875 -0.171875 C 1.742188 -0.0351562 1.523438 0.03125 1.265625 0.03125 C 1.054688 0.03125 0.867188 -0.015625 0.703125 -0.109375 C 0.546875 -0.203125 0.421875 -0.332031 0.328125 -0.5 C 0.234375 -0.664062 0.1875 -0.863281 0.1875 -1.09375 C 0.1875 -1.320312 0.234375 -1.519531 0.328125 -1.6875 C 0.421875 -1.851562 0.546875 -1.984375 0.703125 -2.078125 C 0.867188 -2.171875 1.054688 -2.21875 1.265625 -2.21875 C 1.472656 -2.21875 1.65625 -2.171875 1.8125 -2.078125 C 1.96875 -1.984375 2.085938 -1.859375 2.171875 -1.703125 C 2.253906 -1.554688 2.296875 -1.390625 2.296875 -1.203125 Z M 2.015625 -1.21875 C 2.015625 -1.375 1.976562 -1.507812 1.90625 -1.625 C 1.84375 -1.738281 1.75 -1.820312 1.625 -1.875 C 1.507812 -1.9375 1.382812 -1.96875 1.25 -1.96875 C 1.039062 -1.96875 0.863281 -1.898438 0.71875 -1.765625 C 0.570312 -1.640625 0.488281 -1.457031 0.46875 -1.21875 Z M 2.015625 -1.21875 "/></g></g></g><g fill="#d9d9d9" fill-opacity="1"><g transform="translate(120.03868, 99.113772)"><g><path d="M 0.1875 -1.09375 C 0.1875 -1.320312 0.226562 -1.519531 0.3125 -1.6875 C 0.40625 -1.851562 0.53125 -1.984375 0.6875 -2.078125 C 0.851562 -2.171875 1.035156 -2.21875 1.234375 -2.21875 C 1.441406 -2.21875 1.617188 -2.164062 1.765625 -2.0625 C 1.921875 -1.96875 2.03125 -1.847656 2.09375 -1.703125 L 2.09375 -2.1875 L 2.375 -2.1875 L 2.375 0 L 2.09375 0 L 2.09375 -0.484375 C 2.03125 -0.335938 1.921875 -0.210938 1.765625 -0.109375 C 1.617188 -0.015625 1.441406 0.03125 1.234375 0.03125 C 1.035156 0.03125 0.851562 -0.015625 0.6875 -0.109375 C 0.53125 -0.203125 0.40625 -0.332031 0.3125 -0.5 C 0.226562 -0.675781 0.1875 -0.875 0.1875 -1.09375 Z M 2.09375 -1.09375 C 2.09375 -1.269531 2.054688 -1.421875 1.984375 -1.546875 C 1.921875 -1.679688 1.828125 -1.785156 1.703125 -1.859375 C 1.578125 -1.929688 1.4375 -1.96875 1.28125 -1.96875 C 1.132812 -1.96875 1 -1.929688 0.875 -1.859375 C 0.75 -1.796875 0.648438 -1.695312 0.578125 -1.5625 C 0.503906 -1.4375 0.46875 -1.28125 0.46875 -1.09375 C 0.46875 -0.914062 0.503906 -0.757812 0.578125 -0.625 C 0.648438 -0.488281 0.75 -0.382812 0.875 -0.3125 C 1 -0.25 1.132812 -0.21875 1.28125 -0.21875 C 1.4375 -0.21875 1.578125 -0.25 1.703125 -0.3125 C 1.828125 -0.382812 1.921875 -0.488281 1.984375 -0.625 C 2.054688 -0.757812 2.09375 -0.914062 2.09375 -1.09375 Z M 2.09375 -1.09375 "/></g></g></g><g fill="#d9d9d9" fill-opacity="1"><g transform="translate(122.738696, 99.113772)"><g><path d="M 0.6875 -1.953125 L 0.6875 -0.59375 C 0.6875 -0.457031 0.710938 -0.363281 0.765625 -0.3125 C 0.816406 -0.257812 0.90625 -0.234375 1.03125 -0.234375 L 1.28125 -0.234375 L 1.28125 0 L 0.984375 0 C 0.785156 0 0.640625 -0.046875 0.546875 -0.140625 C 0.453125 -0.234375 0.40625 -0.382812 0.40625 -0.59375 L 0.40625 -1.953125 L 0.09375 -1.953125 L 0.09375 -2.1875 L 0.40625 -2.1875 L 0.40625 -2.734375 L 0.6875 -2.734375 L 0.6875 -2.1875 L 1.28125 -2.1875 L 1.28125 -1.953125 Z M 0.6875 -1.953125 "/></g></g></g><g fill="#d9d9d9" fill-opacity="1"><g transform="translate(124.162707, 99.113772)"><g><path d="M 0.453125 -2.59375 C 0.398438 -2.59375 0.351562 -2.613281 0.3125 -2.65625 C 0.269531 -2.695312 0.25 -2.742188 0.25 -2.796875 C 0.25 -2.859375 0.269531 -2.910156 0.3125 -2.953125 C 0.351562 -2.992188 0.398438 -3.015625 0.453125 -3.015625 C 0.515625 -3.015625 0.5625 -2.992188 0.59375 -2.953125 C 0.632812 -2.910156 0.65625 -2.859375 0.65625 -2.796875 C 0.65625 -2.742188 0.632812 -2.695312 0.59375 -2.65625 C 0.5625 -2.613281 0.515625 -2.59375 0.453125 -2.59375 Z M 0.59375 -2.1875 L 0.59375 0 L 0.3125 0 L 0.3125 -2.1875 Z M 0.59375 -2.1875 "/></g></g></g><g fill="#d9d9d9" fill-opacity="1"><g transform="translate(125.078712, 99.113772)"><g><path d="M 1.09375 -0.265625 L 1.828125 -2.1875 L 2.125 -2.1875 L 1.25 0 L 0.9375 0 L 0.0625 -2.1875 L 0.359375 -2.1875 Z M 1.09375 -0.265625 "/></g></g></g><g fill="#d9d9d9" fill-opacity="1"><g transform="translate(127.266725, 99.113772)"><g><path d="M 2.296875 -1.203125 C 2.296875 -1.109375 2.289062 -1.035156 2.28125 -0.984375 L 0.46875 -0.984375 C 0.476562 -0.816406 0.519531 -0.675781 0.59375 -0.5625 C 0.664062 -0.445312 0.757812 -0.359375 0.875 -0.296875 C 1 -0.234375 1.128906 -0.203125 1.265625 -0.203125 C 1.441406 -0.203125 1.59375 -0.242188 1.71875 -0.328125 C 1.84375 -0.421875 1.925781 -0.539062 1.96875 -0.6875 L 2.265625 -0.6875 C 2.210938 -0.476562 2.097656 -0.304688 1.921875 -0.171875 C 1.742188 -0.0351562 1.523438 0.03125 1.265625 0.03125 C 1.054688 0.03125 0.867188 -0.015625 0.703125 -0.109375 C 0.546875 -0.203125 0.421875 -0.332031 0.328125 -0.5 C 0.234375 -0.664062 0.1875 -0.863281 0.1875 -1.09375 C 0.1875 -1.320312 0.234375 -1.519531 0.328125 -1.6875 C 0.421875 -1.851562 0.546875 -1.984375 0.703125 -2.078125 C 0.867188 -2.171875 1.054688 -2.21875 1.265625 -2.21875 C 1.472656 -2.21875 1.65625 -2.171875 1.8125 -2.078125 C 1.96875 -1.984375 2.085938 -1.859375 2.171875 -1.703125 C 2.253906 -1.554688 2.296875 -1.390625 2.296875 -1.203125 Z M 2.015625 -1.21875 C 2.015625 -1.375 1.976562 -1.507812 1.90625 -1.625 C 1.84375 -1.738281 1.75 -1.820312 1.625 -1.875 C 1.507812 -1.9375 1.382812 -1.96875 1.25 -1.96875 C 1.039062 -1.96875 0.863281 -1.898438 0.71875 -1.765625 C 0.570312 -1.640625 0.488281 -1.457031 0.46875 -1.21875 Z M 2.015625 -1.21875 "/></g></g></g><g fill="#d9d9d9" fill-opacity="1"><g transform="translate(129.754741, 99.113772)"><g/></g></g><g fill="#d9d9d9" fill-opacity="1"><g transform="translate(130.850749, 99.113772)"><g><path d="M 0.59375 -1.703125 C 0.664062 -1.847656 0.773438 -1.96875 0.921875 -2.0625 C 1.078125 -2.164062 1.257812 -2.21875 1.46875 -2.21875 C 1.664062 -2.21875 1.84375 -2.171875 2 -2.078125 C 2.15625 -1.984375 2.273438 -1.851562 2.359375 -1.6875 C 2.453125 -1.519531 2.5 -1.320312 2.5 -1.09375 C 2.5 -0.875 2.453125 -0.675781 2.359375 -0.5 C 2.273438 -0.332031 2.15625 -0.203125 2 -0.109375 C 1.84375 -0.015625 1.664062 0.03125 1.46875 0.03125 C 1.257812 0.03125 1.078125 -0.015625 0.921875 -0.109375 C 0.773438 -0.210938 0.664062 -0.335938 0.59375 -0.484375 L 0.59375 1.03125 L 0.3125 1.03125 L 0.3125 -2.1875 L 0.59375 -2.1875 Z M 2.21875 -1.09375 C 2.21875 -1.28125 2.179688 -1.4375 2.109375 -1.5625 C 2.046875 -1.695312 1.953125 -1.796875 1.828125 -1.859375 C 1.703125 -1.929688 1.5625 -1.96875 1.40625 -1.96875 C 1.257812 -1.96875 1.125 -1.929688 1 -1.859375 C 0.875 -1.785156 0.773438 -1.679688 0.703125 -1.546875 C 0.628906 -1.421875 0.59375 -1.269531 0.59375 -1.09375 C 0.59375 -0.914062 0.628906 -0.757812 0.703125 -0.625 C 0.773438 -0.488281 0.875 -0.382812 1 -0.3125 C 1.125 -0.25 1.257812 -0.21875 1.40625 -0.21875 C 1.5625 -0.21875 1.703125 -0.25 1.828125 -0.3125 C 1.953125 -0.382812 2.046875 -0.488281 2.109375 -0.625 C 2.179688 -0.757812 2.21875 -0.914062 2.21875 -1.09375 Z M 2.21875 -1.09375 "/></g></g></g><g fill="#d9d9d9" fill-opacity="1"><g transform="translate(133.550766, 99.113772)"><g><path d="M 0.59375 -1.796875 C 0.65625 -1.929688 0.75 -2.035156 0.875 -2.109375 C 1.007812 -2.179688 1.164062 -2.21875 1.34375 -2.21875 L 1.34375 -1.9375 L 1.265625 -1.9375 C 1.066406 -1.9375 0.90625 -1.878906 0.78125 -1.765625 C 0.65625 -1.660156 0.59375 -1.476562 0.59375 -1.21875 L 0.59375 0 L 0.3125 0 L 0.3125 -2.1875 L 0.59375 -2.1875 Z M 0.59375 -1.796875 "/></g></g></g><g fill="#d9d9d9" fill-opacity="1"><g transform="translate(134.998774, 99.113772)"><g><path d="M 1.28125 0.03125 C 1.070312 0.03125 0.882812 -0.015625 0.71875 -0.109375 C 0.550781 -0.203125 0.421875 -0.332031 0.328125 -0.5 C 0.234375 -0.664062 0.1875 -0.863281 0.1875 -1.09375 C 0.1875 -1.320312 0.234375 -1.519531 0.328125 -1.6875 C 0.429688 -1.851562 0.5625 -1.984375 0.71875 -2.078125 C 0.882812 -2.171875 1.070312 -2.21875 1.28125 -2.21875 C 1.488281 -2.21875 1.675781 -2.171875 1.84375 -2.078125 C 2.007812 -1.984375 2.140625 -1.851562 2.234375 -1.6875 C 2.328125 -1.519531 2.375 -1.320312 2.375 -1.09375 C 2.375 -0.863281 2.328125 -0.664062 2.234375 -0.5 C 2.140625 -0.332031 2.003906 -0.203125 1.828125 -0.109375 C 1.660156 -0.015625 1.476562 0.03125 1.28125 0.03125 Z M 1.28125 -0.21875 C 1.414062 -0.21875 1.546875 -0.25 1.671875 -0.3125 C 1.796875 -0.375 1.894531 -0.46875 1.96875 -0.59375 C 2.050781 -0.726562 2.09375 -0.894531 2.09375 -1.09375 C 2.09375 -1.28125 2.050781 -1.441406 1.96875 -1.578125 C 1.894531 -1.710938 1.796875 -1.8125 1.671875 -1.875 C 1.554688 -1.9375 1.425781 -1.96875 1.28125 -1.96875 C 1.132812 -1.96875 1 -1.9375 0.875 -1.875 C 0.757812 -1.8125 0.660156 -1.710938 0.578125 -1.578125 C 0.503906 -1.441406 0.46875 -1.28125 0.46875 -1.09375 C 0.46875 -0.894531 0.503906 -0.726562 0.578125 -0.59375 C 0.660156 -0.46875 0.757812 -0.375 0.875 -0.3125 C 1 -0.25 1.132812 -0.21875 1.28125 -0.21875 Z M 1.28125 -0.21875 "/></g></g></g><g fill="#d9d9d9" fill-opacity="1"><g transform="translate(137.566792, 99.113772)"><g><path d="M 0.484375 -2.59375 C 0.421875 -2.59375 0.367188 -2.613281 0.328125 -2.65625 C 0.296875 -2.695312 0.28125 -2.742188 0.28125 -2.796875 C 0.28125 -2.859375 0.296875 -2.910156 0.328125 -2.953125 C 0.367188 -2.992188 0.421875 -3.015625 0.484375 -3.015625 C 0.535156 -3.015625 0.582031 -2.992188 0.625 -2.953125 C 0.664062 -2.910156 0.6875 -2.859375 0.6875 -2.796875 C 0.6875 -2.742188 0.664062 -2.695312 0.625 -2.65625 C 0.582031 -2.613281 0.535156 -2.59375 0.484375 -2.59375 Z M 0.609375 0.515625 C 0.609375 0.691406 0.566406 0.820312 0.484375 0.90625 C 0.398438 0.988281 0.269531 1.03125 0.09375 1.03125 L -0.109375 1.03125 L -0.109375 0.796875 L 0.046875 0.796875 C 0.148438 0.796875 0.222656 0.769531 0.265625 0.71875 C 0.316406 0.675781 0.34375 0.601562 0.34375 0.5 L 0.34375 -2.1875 L 0.609375 -2.1875 Z M 0.609375 0.515625 "/></g></g></g><g fill="#d9d9d9" fill-opacity="1"><g transform="translate(138.502796, 99.113772)"><g><path d="M 2.296875 -1.203125 C 2.296875 -1.109375 2.289062 -1.035156 2.28125 -0.984375 L 0.46875 -0.984375 C 0.476562 -0.816406 0.519531 -0.675781 0.59375 -0.5625 C 0.664062 -0.445312 0.757812 -0.359375 0.875 -0.296875 C 1 -0.234375 1.128906 -0.203125 1.265625 -0.203125 C 1.441406 -0.203125 1.59375 -0.242188 1.71875 -0.328125 C 1.84375 -0.421875 1.925781 -0.539062 1.96875 -0.6875 L 2.265625 -0.6875 C 2.210938 -0.476562 2.097656 -0.304688 1.921875 -0.171875 C 1.742188 -0.0351562 1.523438 0.03125 1.265625 0.03125 C 1.054688 0.03125 0.867188 -0.015625 0.703125 -0.109375 C 0.546875 -0.203125 0.421875 -0.332031 0.328125 -0.5 C 0.234375 -0.664062 0.1875 -0.863281 0.1875 -1.09375 C 0.1875 -1.320312 0.234375 -1.519531 0.328125 -1.6875 C 0.421875 -1.851562 0.546875 -1.984375 0.703125 -2.078125 C 0.867188 -2.171875 1.054688 -2.21875 1.265625 -2.21875 C 1.472656 -2.21875 1.65625 -2.171875 1.8125 -2.078125 C 1.96875 -1.984375 2.085938 -1.859375 2.171875 -1.703125 C 2.253906 -1.554688 2.296875 -1.390625 2.296875 -1.203125 Z M 2.015625 -1.21875 C 2.015625 -1.375 1.976562 -1.507812 1.90625 -1.625 C 1.84375 -1.738281 1.75 -1.820312 1.625 -1.875 C 1.507812 -1.9375 1.382812 -1.96875 1.25 -1.96875 C 1.039062 -1.96875 0.863281 -1.898438 0.71875 -1.765625 C 0.570312 -1.640625 0.488281 -1.457031 0.46875 -1.21875 Z M 2.015625 -1.21875 "/></g></g></g><g fill="#d9d9d9" fill-opacity="1"><g transform="translate(140.990812, 99.113772)"><g><path d="M 0.1875 -1.09375 C 0.1875 -1.320312 0.234375 -1.519531 0.328125 -1.6875 C 0.421875 -1.851562 0.546875 -1.984375 0.703125 -2.078125 C 0.859375 -2.171875 1.039062 -2.21875 1.25 -2.21875 C 1.519531 -2.21875 1.742188 -2.148438 1.921875 -2.015625 C 2.097656 -1.878906 2.207031 -1.695312 2.25 -1.46875 L 1.953125 -1.46875 C 1.921875 -1.625 1.84375 -1.742188 1.71875 -1.828125 C 1.59375 -1.921875 1.4375 -1.96875 1.25 -1.96875 C 1.101562 -1.96875 0.972656 -1.9375 0.859375 -1.875 C 0.742188 -1.8125 0.648438 -1.710938 0.578125 -1.578125 C 0.503906 -1.441406 0.46875 -1.28125 0.46875 -1.09375 C 0.46875 -0.894531 0.503906 -0.726562 0.578125 -0.59375 C 0.648438 -0.46875 0.742188 -0.367188 0.859375 -0.296875 C 0.972656 -0.234375 1.101562 -0.203125 1.25 -0.203125 C 1.4375 -0.203125 1.59375 -0.242188 1.71875 -0.328125 C 1.84375 -0.421875 1.921875 -0.550781 1.953125 -0.71875 L 2.25 -0.71875 C 2.207031 -0.488281 2.097656 -0.304688 1.921875 -0.171875 C 1.742188 -0.0351562 1.519531 0.03125 1.25 0.03125 C 1.039062 0.03125 0.859375 -0.015625 0.703125 -0.109375 C 0.546875 -0.203125 0.421875 -0.332031 0.328125 -0.5 C 0.234375 -0.664062 0.1875 -0.863281 0.1875 -1.09375 Z M 0.1875 -1.09375 "/></g></g></g><g fill="#d9d9d9" fill-opacity="1"><g transform="translate(143.442828, 99.113772)"><g><path d="M 0.6875 -1.953125 L 0.6875 -0.59375 C 0.6875 -0.457031 0.710938 -0.363281 0.765625 -0.3125 C 0.816406 -0.257812 0.90625 -0.234375 1.03125 -0.234375 L 1.28125 -0.234375 L 1.28125 0 L 0.984375 0 C 0.785156 0 0.640625 -0.046875 0.546875 -0.140625 C 0.453125 -0.234375 0.40625 -0.382812 0.40625 -0.59375 L 0.40625 -1.953125 L 0.09375 -1.953125 L 0.09375 -2.1875 L 0.40625 -2.1875 L 0.40625 -2.734375 L 0.6875 -2.734375 L 0.6875 -2.1875 L 1.28125 -2.1875 L 1.28125 -1.953125 Z M 0.6875 -1.953125 "/></g></g></g><g fill="#d9d9d9" fill-opacity="1"><g transform="translate(144.866839, 99.113772)"><g><path d="M 1.078125 0.03125 C 0.828125 0.03125 0.617188 -0.0234375 0.453125 -0.140625 C 0.296875 -0.253906 0.207031 -0.410156 0.1875 -0.609375 L 0.484375 -0.609375 C 0.492188 -0.492188 0.550781 -0.394531 0.65625 -0.3125 C 0.757812 -0.238281 0.894531 -0.203125 1.0625 -0.203125 C 1.21875 -0.203125 1.335938 -0.238281 1.421875 -0.3125 C 1.515625 -0.382812 1.5625 -0.472656 1.5625 -0.578125 C 1.5625 -0.648438 1.535156 -0.710938 1.484375 -0.765625 C 1.429688 -0.816406 1.367188 -0.851562 1.296875 -0.875 C 1.222656 -0.90625 1.125 -0.9375 1 -0.96875 C 0.84375 -1.007812 0.710938 -1.050781 0.609375 -1.09375 C 0.503906 -1.132812 0.414062 -1.195312 0.34375 -1.28125 C 0.28125 -1.363281 0.25 -1.476562 0.25 -1.625 C 0.25 -1.726562 0.28125 -1.828125 0.34375 -1.921875 C 0.40625 -2.015625 0.492188 -2.085938 0.609375 -2.140625 C 0.722656 -2.191406 0.859375 -2.21875 1.015625 -2.21875 C 1.242188 -2.21875 1.429688 -2.15625 1.578125 -2.03125 C 1.722656 -1.914062 1.800781 -1.753906 1.8125 -1.546875 L 1.53125 -1.546875 C 1.519531 -1.671875 1.46875 -1.769531 1.375 -1.84375 C 1.289062 -1.925781 1.164062 -1.96875 1 -1.96875 C 0.863281 -1.96875 0.75 -1.9375 0.65625 -1.875 C 0.570312 -1.8125 0.53125 -1.726562 0.53125 -1.625 C 0.53125 -1.539062 0.554688 -1.472656 0.609375 -1.421875 C 0.660156 -1.367188 0.722656 -1.328125 0.796875 -1.296875 C 0.878906 -1.265625 0.984375 -1.226562 1.109375 -1.1875 C 1.265625 -1.144531 1.390625 -1.101562 1.484375 -1.0625 C 1.578125 -1.019531 1.65625 -0.957031 1.71875 -0.875 C 1.789062 -0.800781 1.828125 -0.703125 1.828125 -0.578125 C 1.828125 -0.460938 1.796875 -0.359375 1.734375 -0.265625 C 1.671875 -0.171875 1.582031 -0.0976562 1.46875 -0.046875 C 1.351562 0.00390625 1.222656 0.03125 1.078125 0.03125 Z M 1.078125 0.03125 "/></g></g></g><g fill="#d9d9d9" fill-opacity="1"><g transform="translate(146.906852, 99.113772)"><g><path d="M 0.375 0.015625 C 0.3125 0.015625 0.257812 0 0.21875 -0.03125 C 0.175781 -0.0703125 0.15625 -0.125 0.15625 -0.1875 C 0.15625 -0.25 0.175781 -0.296875 0.21875 -0.328125 C 0.257812 -0.367188 0.3125 -0.390625 0.375 -0.390625 C 0.425781 -0.390625 0.46875 -0.367188 0.5 -0.328125 C 0.539062 -0.296875 0.5625 -0.25 0.5625 -0.1875 C 0.5625 -0.125 0.539062 -0.0703125 0.5 -0.03125 C 0.46875 0 0.425781 0.015625 0.375 0.015625 Z M 0.375 0.015625 "/></g></g></g></svg>